<svg width="48" height="50" viewBox="0 0 48 50" fill="none" xmlns="http://www.w3.org/2000/svg">
<g clip-path="url(#clip0_14_61)">
<path d="M24 48.5C37.2548 48.5 48 37.7548 48 24.5C48 11.2452 37.2548 0.5 24 0.5C10.7452 0.5 0 11.2452 0 24.5C0 37.7548 10.7452 48.5 24 48.5Z" fill="url(#paint0_linear_14_61)"/>
<path fill-rule="evenodd" clip-rule="evenodd" d="M10.8638 24.2467C17.8603 21.1984 22.5257 19.1888 24.86 18.2179C31.5251 15.4456 32.91 14.9641 33.8127 14.9482C34.0113 14.9447 34.4552 14.9939 34.7427 15.2272C34.9855 15.4242 35.0523 15.6904 35.0843 15.8771C35.1163 16.0639 35.1561 16.4895 35.1244 16.822C34.7633 20.6169 33.2004 29.8263 32.4053 34.0767C32.0689 35.8752 31.4065 36.4783 30.7652 36.5373C29.3714 36.6655 28.3131 35.6162 26.9632 34.7314C24.8509 33.3467 23.6576 32.4848 21.6072 31.1336C19.2377 29.5721 20.7738 28.7139 22.1242 27.3113C22.4776 26.9442 28.6183 21.3587 28.7372 20.852C28.7521 20.7886 28.7659 20.5524 28.6255 20.4277C28.4852 20.303 28.2781 20.3456 28.1286 20.3795C27.9168 20.4276 24.5423 22.658 18.0053 27.0707C17.0475 27.7284 16.1799 28.0489 15.4026 28.0321C14.5457 28.0136 12.8973 27.5476 11.6719 27.1492C10.1689 26.6607 8.97432 26.4024 9.07834 25.5726C9.13252 25.1404 9.72767 24.6985 10.8638 24.2467Z" fill="white"/>
</g>
<defs>
<linearGradient id="paint0_linear_14_61" x1="2400" y1="0.5" x2="2400" y2="4764.9" gradientUnits="userSpaceOnUse">
<stop/>
<stop offset="1"/>
</linearGradient>
<clipPath id="clip0_14_61">
<rect width="48" height="48" fill="white" transform="translate(0 0.5)"/>
</clipPath>
</defs>
</svg>
