<svg width="115" height="20" viewBox="0 0 115 20" fill="none" xmlns="http://www.w3.org/2000/svg">
<g clip-path="url(#clip0_3_2)">
<mask id="mask0_3_2" style="mask-type:luminance" maskUnits="userSpaceOnUse" x="0" y="0" width="115" height="20">
<path d="M114.9 0H0.0999985V20H114.9V0Z" fill="white"/>
</mask>
<g mask="url(#mask0_3_2)">
<path d="M34.8644 12.4084C34.8644 13.9267 33.4508 15.0262 31.4612 15.0262H26.8016V5.6021H31.3042C33.2414 5.6021 34.6026 6.64922 34.6026 8.1152C34.6026 9.10996 34.079 9.73822 33.2938 10.1047C34.1314 10.4189 34.8644 11.2566 34.8644 12.4084ZM28.8434 7.32986V9.37174H31.2518C31.9848 9.37174 32.456 8.95288 32.456 8.37698C32.456 7.80106 31.9324 7.32986 31.2518 7.32986H28.8434ZM31.4612 13.2984C32.2466 13.2984 32.8226 12.8272 32.8226 12.1466C32.8226 11.466 32.299 10.9948 31.4612 10.9948H28.8434V13.2984H31.4612Z" fill="black"/>
<path d="M42.5608 14.9738L39.3148 11.2566H38.7912V14.9738H36.6968V5.6021H38.7912V9.21466H39.3148L42.456 5.6021H44.9168L40.99 10.1047L45.2832 14.9738H42.5608Z" fill="black"/>
<path d="M45.2834 10.3142C45.2834 7.48696 47.3776 5.44506 50.3094 5.44506C53.2414 5.44506 55.3356 7.48696 55.3356 10.3142C55.3356 13.1414 53.2414 15.1833 50.3094 15.1833C47.3776 15.1833 45.2834 13.1414 45.2834 10.3142ZM53.1368 10.3142C53.1368 8.53408 51.9848 7.32988 50.3094 7.32988C48.634 7.32988 47.4822 8.53408 47.4822 10.3142C47.4822 12.0943 48.634 13.2985 50.3094 13.2985C51.9848 13.2985 53.1368 12.0943 53.1368 10.3142Z" fill="black"/>
<path d="M63.3462 5.6021H65.4404V14.9738H63.3462V11.2042H59.1576V14.9738H57.0634V5.6021H59.1576V9.31938H63.3462V5.6021Z" fill="black"/>
<path d="M69.943 14.9738V7.48692H66.6968V5.6021H75.231V7.48692H71.9848V14.9738H69.943Z" fill="black"/>
<path d="M84.2362 9.73826V14.9739H82.7178L82.299 13.5079C81.8278 14.2932 80.833 15.1833 79.3146 15.1833C77.4298 15.1833 76.0686 13.9267 76.0686 12.199C76.0686 10.4712 77.4298 9.26706 80.2048 9.26706H82.2466C82.142 8.06286 81.5136 7.22518 80.3618 7.22518C79.4194 7.22518 78.7912 7.74874 78.477 8.32464L76.5922 8.01052C77.0634 6.38748 78.6864 5.44506 80.4666 5.44506C82.7702 5.44506 84.2362 7.01574 84.2362 9.73826ZM82.1942 10.8901H80.257C78.6864 10.8901 78.1628 11.4137 78.1628 12.0943C78.1628 12.8796 78.7912 13.4032 79.8382 13.4032C81.1996 13.4032 82.1942 12.4084 82.1942 10.8901Z" fill="black"/>
<path d="M92.299 14.9738L89.053 11.2566H88.5294V14.9738H86.4352V5.6021H88.5294V9.21466H89.053L92.1942 5.6021H94.655L90.7284 10.1047L95.0216 14.9738H92.299Z" fill="black"/>
<path d="M98.7912 14.9738V7.48692H95.545V5.6021H104.079V7.48692H100.833V14.9738H98.7912Z" fill="black"/>
<path d="M114.55 10.8901H107.011C107.22 12.3561 108.268 13.2985 109.838 13.2985C110.938 13.2985 111.775 12.8273 112.247 12.1466L114.184 12.4608C113.503 14.2409 111.671 15.1833 109.681 15.1833C106.854 15.1833 104.812 13.1414 104.812 10.3142C104.812 7.48696 106.854 5.44506 109.681 5.44506C112.508 5.44506 114.55 7.48696 114.55 10.2095C114.603 10.4712 114.55 10.6807 114.55 10.8901ZM107.168 9.26706H112.351C111.985 8.11522 111.042 7.27752 109.734 7.27752C108.477 7.22518 107.482 8.06286 107.168 9.26706Z" fill="black"/>
<path d="M0.0999985 9.6C0.0999985 5.07452 0.0999985 2.81178 1.50589 1.40589C2.91178 0 5.17452 0 9.7 0H10.5C15.0255 0 17.2882 0 18.6941 1.40589C20.1 2.81178 20.1 5.07452 20.1 9.6V10.4C20.1 14.9255 20.1 17.1882 18.6941 18.5941C17.2882 20 15.0255 20 10.5 20H9.7C5.17452 20 2.91178 20 1.50589 18.5941C0.0999985 17.1882 0.0999985 14.9255 0.0999985 10.4V9.6Z" fill="#0077FF"/>
<path d="M10.7417 14.4084C6.18334 14.4084 3.58336 11.2834 3.47504 6.0834H5.75836C5.83336 9.90006 7.51666 11.5167 8.84998 11.8501V6.0834H11.0001V9.37504C12.3167 9.23338 13.6999 7.7334 14.1666 6.0834H16.3166C15.9583 8.11674 14.4583 9.61672 13.3916 10.2334C14.4583 10.7334 16.1667 12.0417 16.8167 14.4084H14.45C13.9416 12.8251 12.6751 11.6001 11.0001 11.4334V14.4084H10.7417Z" fill="white"/>
</g>
</g>
<defs>
<clipPath id="clip0_3_2">
<rect width="115" height="20" fill="white"/>
</clipPath>
</defs>
</svg>
